<?xml version="1.0" encoding="UTF-8"?>
<!-- Created with Inkscape (http://www.inkscape.org/) -->
<svg width="171.64mm" height="33.867mm" version="1.1" viewBox="0 0 171.64 33.867" xmlns="http://www.w3.org/2000/svg">
 <defs>
  <clipPath id="clipPath26-4">
   <path transform="translate(-382.64 -348.63)" d="m0 0h841.89v595.28h-841.89z"/>
  </clipPath>
  <clipPath id="clipPath28-8">
   <path transform="translate(-534.21 -301.88)" d="m0 0h841.89v595.28h-841.89z"/>
  </clipPath>
  <clipPath id="clipPath30-4">
   <path transform="translate(-587.16 -281.18)" d="m0 0h841.89v595.28h-841.89z"/>
  </clipPath>
 </defs>
 <g transform="translate(-198.97 -147.37)" fill="#ce1527">
  <path d="m209.44 168.44v12.514h-10.47v-33.575h10.47v12.097h22.377v-12.097h10.469v33.575h-10.469v-12.514z"/>
  <path transform="matrix(.49781 0 0 -.49781 254.52 147.37)" d="m0 0v-44.955c0-1.342 0.552-2.421 1.655-3.245 1.108-0.823 2.83-1.235 5.171-1.235h29.87c2.518 0 4.332 0.412 5.451 1.235 1.117 0.824 1.671 1.903 1.671 3.245v44.955h20.703v-47.88c0-3.055-0.33-5.622-0.992-7.735-0.653-2.111-1.908-4.088-3.743-5.925-1.954-1.761-3.579-3.019-4.857-3.797-1.294-0.763-3.069-1.348-5.322-1.755-2.266-0.409-5.387-0.664-9.347-0.772-3.961-0.11-10.065-0.167-18.306-0.167-8.178 0-14.285 0.057-18.284 0.167-4.014 0.108-7.142 0.363-9.413 0.772-2.255 0.407-4.058 1.005-5.399 1.806-1.335 0.794-2.946 2.04-4.823 3.746-1.834 1.837-3.081 3.814-3.745 5.925-0.653 2.113-0.976 4.68-0.976 7.735v47.88z" clip-path="url(#clipPath26-4)"/>
  <path transform="matrix(.49781 0 0 -.49781 329.98 170.64)" d="m0 0c0-7.297-1.627-12.566-4.866-15.819-3.232-3.255-8.434-4.881-15.576-4.881h-60.914v14.576h51.98c1.206 0 2.308 0.06 3.325 0.169 0.992 0.116 1.923 0.356 2.784 0.732 0.838 0.381 1.526 0.934 2.041 1.675 0.522 0.738 0.784 1.713 0.784 2.911 0 1.367-0.362 2.478-1.066 3.31-0.723 0.846-1.64 1.437-2.79 1.806-1.151 0.362-2.335 0.585-3.558 0.688-1.231 0.097-2.735 0.151-4.532 0.151-1.064 0.05-4.111 0.166-9.177 0.33-7.867 0.279-12.814 0.463-14.829 0.549-2.006 0.082-3.892 0.164-5.668 0.243-1.776 0.087-3.296 0.188-4.555 0.294-6.33 0.368-10.873 2.466-13.606 6.288-1.962 2.846-2.933 7.109-2.933 12.778 0 6.983 1.342 12.218 4.043 15.704 2.691 3.497 7.156 5.242 13.383 5.242h63.21v-14.578h-51.977c-1.149 0-2.181-0.064-3.086-0.186-0.91-0.131-1.765-0.372-2.577-0.734-0.804-0.367-1.46-0.923-1.95-1.659-0.486-0.741-0.733-1.725-0.733-2.951 0-2.154 0.781-3.565 2.331-4.251 1.544-0.688 3.69-1.032 6.425-1.032h3.519c1.032-0.081 4.037-0.206 9.003-0.368 6.883-0.229 11.643-0.398 14.311-0.514 2.661-0.104 4.919-0.202 6.743-0.29 1.827-0.083 3.347-0.176 4.549-0.292 6.286-0.361 10.684-2.65 13.203-6.869 1.831-3.496 2.759-7.828 2.759-13.022" clip-path="url(#clipPath28-8)"/>
  <path transform="matrix(.49781 0 0 -.49781 356.34 180.95)" d="m0 0h-20.981v51.82h-29.614v15.626h79.257v-15.626h-28.662z" clip-path="url(#clipPath30-4)"/>
 </g>
</svg>
